<svg xmlns="http://www.w3.org/2000/svg" width="782" height="167" viewBox="0 0 782 167">
<g>
<path d="M 728.17 130.10 C721.23,132.77 708.48,133.51 702.00,131.62 C694.32,129.38 687.40,125.28 682.35,119.96 C676.62,113.92 674.74,110.68 672.02,102.14 C668.72,91.76 669.73,81.27 675.08,70.55 C678.12,64.47 687.61,55.52 694.22,52.51 C715.28,42.92 739.94,51.63 750.47,72.38 C753.64,78.63 754.28,80.99 754.71,88.12 C755.13,94.99 754.83,97.67 753.05,103.00 C748.83,115.67 739.63,125.69 728.17,130.10 ZM 554.19 127.02 C539.48,132.61 522.48,128.89 512.62,117.92 C499.52,103.35 500.24,72.47 513.99,59.12 C516.30,56.89 520.73,53.84 523.84,52.35 C528.80,49.98 530.74,49.64 539.50,49.61 C548.43,49.57 550.17,49.87 555.79,52.44 C563.66,56.03 570.72,63.49 573.97,71.63 C577.49,80.48 577.98,95.72 575.04,104.88 C571.55,115.73 564.67,123.04 554.19,127.02 ZM 703.32 121.62 C709.10,123.51 719.38,122.81 725.52,120.10 C731.99,117.25 739.30,110.00 742.17,103.59 C745.64,95.84 745.42,84.34 741.67,77.16 C735.08,64.56 724.61,58.46 710.86,59.23 C692.71,60.24 680.42,73.12 680.56,91.00 C680.66,105.33 689.39,117.06 703.32,121.62 ZM 533.01 111.25 C540.92,115.21 549.80,111.92 553.98,103.50 C557.40,96.59 557.47,83.01 554.13,75.40 C548.85,63.40 533.25,62.61 526.55,74.00 C524.80,76.98 524.50,79.20 524.50,89.00 C524.50,99.41 524.74,100.93 527.01,105.00 C528.54,107.76 530.86,110.18 533.01,111.25 ZM 131.44 28.70 L 130.45 31.50 L 81.24 31.76 C33.10,32.01 31.97,31.97 30.01,30.01 C27.37,27.37 27.47,25.39 30.34,23.51 C32.37,22.18 39.03,22.01 81.48,22.24 C126.12,22.48 130.37,22.64 131.35,24.20 C132.08,25.35 132.11,26.79 131.44,28.70 ZM 131.82 60.69 L 131.50 63.50 L 29.97 64.02 L 28.82 61.51 C27.88,59.44 28.00,58.66 29.50,57.00 C31.26,55.05 32.55,55.00 80.53,55.00 C82.24,55.00 83.89,55.00 85.49,55.00 C123.27,55.00 130.71,54.99 131.84,57.66 C132.12,58.32 132.01,59.13 131.89,60.15 C131.87,60.32 131.84,60.50 131.82,60.69 ZM 130.80 128.80 C129.07,130.53 31.93,130.53 30.20,128.80 C28.66,127.26 28.66,123.74 30.20,122.20 C31.93,120.47 129.07,120.47 130.80,122.20 C132.34,123.74 132.34,127.26 130.80,128.80 ZM 131.63 94.35 L 130.96 97.00 L 80.60 97.00 C37.26,97.00 30.07,96.79 29.01,95.51 C27.23,93.37 28.59,89.14 31.27,88.49 C32.49,88.19 55.28,88.07 81.89,88.22 C122.64,88.46 131.03,88.38 132.04,91.08 C132.30,91.77 132.07,92.65 131.78,93.77 C131.73,93.95 131.68,94.15 131.63,94.35 ZM 719.59 105.25 C716.27,111.33 715.60,112.00 712.81,112.00 C710.47,112.00 708.92,111.08 706.47,108.25 C688.61,87.56 688.22,86.92 691.57,83.57 C694.61,80.53 697.25,81.73 704.52,89.49 L 711.55 96.99 L 719.90 84.41 C724.49,77.50 728.95,71.57 729.80,71.25 C731.38,70.64 737.00,76.32 737.00,78.54 C737.00,79.15 735.84,80.74 734.42,82.08 C731.73,84.60 725.91,93.69 719.59,105.25 Z" fill="rgb(41,146,210)"/>
<path d="M 199.50 58.72 L 198.97 128.00 L 179.00 128.00 L 179.00 25.93 L 189.64 26.22 L 200.28 26.50 L 208.94 40.50 C213.71,48.20 222.98,63.27 229.55,73.99 L 241.50 93.48 L 241.76 59.74 L 242.03 26.00 L 263.00 26.00 L 263.00 128.00 L 242.13 128.00 L 234.46 115.25 C230.25,108.24 220.66,92.65 213.15,80.61 ZM 625.91 128.43 C620.10,130.16 618.31,130.22 612.73,128.91 C603.03,126.62 595.57,120.04 591.29,109.98 C588.72,103.92 588.54,102.57 588.52,89.00 C588.50,74.65 588.53,74.43 591.81,67.50 C597.45,55.57 603.55,51.06 615.16,50.22 C624.27,49.57 628.18,50.49 633.49,54.54 C635.98,56.44 638.24,58.00 638.51,58.00 C638.78,58.00 639.00,49.67 639.00,39.50 L 639.00 21.00 L 659.00 21.00 L 659.00 128.08 L 641.50 127.50 L 640.61 123.25 L 639.72 119.01 L 635.45 122.94 C632.81,125.37 629.19,127.46 625.91,128.43 ZM 314.00 126.85 C307.49,129.67 302.29,130.13 296.00,128.42 C288.01,126.25 283.67,122.98 280.62,116.87 C275.99,107.57 277.65,96.34 284.62,89.80 C290.38,84.41 296.31,82.63 310.50,82.04 L 323.50 81.50 L 323.32 77.31 C323.22,75.00 322.62,72.17 322.00,71.00 C320.43,68.06 315.08,65.01 311.50,65.01 C307.66,65.01 302.29,68.27 300.82,71.50 C299.72,73.91 299.34,74.00 290.21,74.00 L 280.74 74.00 L 281.25 69.51 C282.55,57.90 295.39,50.04 313.07,50.01 C327.56,49.99 336.45,54.82 341.09,65.26 C343.27,70.15 343.47,72.18 344.02,95.50 C344.41,111.75 345.05,121.52 345.84,123.41 C346.55,125.08 346.70,126.70 346.20,127.20 C345.72,127.68 341.10,127.95 335.95,127.79 L 326.57 127.50 L 325.62 124.00 C324.95,121.55 324.63,120.38 324.05,120.22 C323.52,120.09 322.76,120.81 321.30,122.21 L 321.24 122.27 C319.73,123.71 316.48,125.77 314.00,126.85 ZM 477.00 41.81 L 477.00 128.00 L 456.00 128.00 L 456.00 42.00 L 424.00 42.00 L 424.00 26.00 L 510.08 26.00 L 509.50 42.46 L 493.25 42.13 ZM 420.00 112.00 L 420.00 128.00 L 356.00 128.00 L 356.00 121.44 C356.00,115.76 356.38,114.39 358.85,111.19 C360.41,109.16 368.52,98.40 376.86,87.27 L 392.03 67.05 L 374.76 66.77 L 357.50 66.50 L 357.21 58.75 L 356.92 51.00 L 418.00 51.00 L 418.00 57.42 C418.00,62.68 417.58,64.36 415.67,66.67 C414.38,68.23 410.22,73.55 406.42,78.50 C390.46,99.26 383.00,109.52 383.00,110.72 C383.00,111.71 387.15,112.00 401.50,112.00 ZM 617.00 111.25 C621.35,113.42 625.78,113.47 630.92,111.42 C637.45,108.80 638.00,107.14 638.00,90.08 C638.00,73.84 637.28,70.71 633.02,68.51 C625.71,64.73 618.09,65.86 613.18,71.45 C604.73,81.07 607.16,106.33 617.00,111.25 ZM 304.29 112.89 C309.22,114.32 311.02,114.17 315.60,111.95 C321.48,109.11 322.40,107.65 323.02,100.27 L 323.56 93.83 L 313.70 94.16 C303.99,94.49 303.78,94.55 300.92,97.77 C295.89,103.39 297.58,110.95 304.29,112.89 Z" fill="rgb(44,44,45)"/>
<path d="M 0.00 83.50 L 0.00 0.00 L 391.00 0.00 L 782.00 0.00 L 782.00 83.50 L 782.00 167.00 L 391.00 167.00 L 0.00 167.00 L 0.00 83.50 ZM 728.17 130.10 C739.63,125.69 748.83,115.67 753.05,103.00 C754.83,97.67 755.13,94.99 754.71,88.12 C754.28,80.99 753.64,78.63 750.47,72.38 C739.94,51.63 715.28,42.92 694.22,52.51 C687.61,55.52 678.12,64.47 675.08,70.55 C669.73,81.27 668.72,91.76 672.02,102.14 C674.74,110.68 676.62,113.92 682.35,119.96 C687.40,125.28 694.32,129.38 702.00,131.62 C708.48,133.51 721.23,132.77 728.17,130.10 ZM 130.80 128.80 C132.34,127.26 132.34,123.74 130.80,122.20 C129.07,120.47 31.93,120.47 30.20,122.20 C28.66,123.74 28.66,127.26 30.20,128.80 C31.93,130.53 129.07,130.53 130.80,128.80 ZM 314.00 126.85 C316.48,125.77 319.73,123.71 321.24,122.27 C324.35,119.29 324.33,119.28 325.62,124.00 L 326.57 127.50 L 335.95 127.79 C341.10,127.95 345.72,127.68 346.20,127.20 C346.70,126.70 346.55,125.08 345.84,123.41 C345.05,121.52 344.41,111.75 344.02,95.50 C343.47,72.18 343.27,70.15 341.09,65.26 C336.45,54.82 327.56,49.99 313.07,50.01 C295.39,50.04 282.55,57.90 281.25,69.51 L 280.74 74.00 L 290.21 74.00 C299.34,74.00 299.72,73.91 300.82,71.50 C302.29,68.27 307.66,65.01 311.50,65.01 C315.08,65.01 320.43,68.06 322.00,71.00 C322.62,72.17 323.22,75.00 323.32,77.31 L 323.50 81.50 L 310.50 82.04 C296.31,82.63 290.38,84.41 284.62,89.80 C277.65,96.34 275.99,107.57 280.62,116.87 C283.67,122.98 288.01,126.25 296.00,128.42 C302.29,130.13 307.49,129.67 314.00,126.85 ZM 554.19 127.02 C564.67,123.04 571.55,115.73 575.04,104.88 C577.98,95.72 577.49,80.48 573.97,71.63 C570.72,63.49 563.66,56.03 555.79,52.44 C550.17,49.87 548.43,49.57 539.50,49.61 C530.74,49.64 528.80,49.98 523.84,52.35 C520.73,53.84 516.30,56.89 513.99,59.12 C500.24,72.47 499.52,103.35 512.62,117.92 C522.48,128.89 539.48,132.61 554.19,127.02 ZM 625.91 128.43 C629.19,127.46 632.81,125.37 635.45,122.94 L 639.72 119.01 L 640.61 123.25 L 641.50 127.50 L 650.25 127.79 L 659.00 128.08 L 659.00 74.54 L 659.00 21.00 L 649.00 21.00 L 639.00 21.00 L 639.00 39.50 C639.00,49.67 638.78,58.00 638.51,58.00 C638.24,58.00 635.98,56.44 633.49,54.54 C628.18,50.49 624.27,49.57 615.16,50.22 C603.55,51.06 597.45,55.57 591.81,67.50 C588.53,74.43 588.50,74.65 588.52,89.00 C588.54,102.57 588.72,103.92 591.29,109.98 C595.57,120.04 603.03,126.62 612.73,128.91 C618.31,130.22 620.10,130.16 625.91,128.43 ZM 199.24 93.36 L 199.50 58.72 L 213.15 80.61 C220.66,92.65 230.25,108.24 234.46,115.25 L 242.13 128.00 L 252.57 128.00 L 263.00 128.00 L 263.00 77.00 L 263.00 26.00 L 252.51 26.00 L 242.03 26.00 L 241.76 59.74 L 241.50 93.48 L 229.55 73.99 C222.98,63.27 213.71,48.20 208.94,40.50 L 200.28 26.50 L 189.64 26.22 L 179.00 25.93 L 179.00 76.97 L 179.00 128.00 L 188.99 128.00 L 198.97 128.00 L 199.24 93.36 ZM 420.00 120.00 L 420.00 112.00 L 401.50 112.00 C387.15,112.00 383.00,111.71 383.00,110.72 C383.00,109.52 390.46,99.26 406.42,78.50 C410.22,73.55 414.38,68.23 415.67,66.67 C417.58,64.36 418.00,62.68 418.00,57.42 L 418.00 51.00 L 387.46 51.00 L 356.92 51.00 L 357.21 58.75 L 357.50 66.50 L 374.76 66.77 L 392.03 67.05 L 376.86 87.27 C368.52,98.40 360.41,109.16 358.85,111.19 C356.38,114.39 356.00,115.76 356.00,121.44 L 356.00 128.00 L 388.00 128.00 L 420.00 128.00 L 420.00 120.00 ZM 477.00 84.91 L 477.00 41.81 L 493.25 42.13 L 509.50 42.46 L 509.79 34.23 L 510.08 26.00 L 467.04 26.00 L 424.00 26.00 L 424.00 34.00 L 424.00 42.00 L 440.00 42.00 L 456.00 42.00 L 456.00 85.00 L 456.00 128.00 L 466.50 128.00 L 477.00 128.00 L 477.00 84.91 ZM 131.63 94.35 C133.14,88.31 134.91,88.53 81.89,88.22 C55.28,88.07 32.49,88.19 31.27,88.49 C28.59,89.14 27.23,93.37 29.01,95.51 C30.07,96.79 37.26,97.00 80.60,97.00 L 130.96 97.00 L 131.63 94.35 ZM 131.82 60.69 C132.50,54.81 134.24,55.00 80.53,55.00 C32.55,55.00 31.26,55.05 29.50,57.00 C28.00,58.66 27.88,59.44 28.82,61.51 L 29.97 64.02 L 80.73 63.76 L 131.50 63.50 L 131.82 60.69 ZM 131.44 28.70 C132.11,26.79 132.08,25.35 131.35,24.20 C130.37,22.64 126.12,22.48 81.48,22.24 C39.03,22.01 32.37,22.18 30.34,23.51 C27.47,25.39 27.37,27.37 30.01,30.01 C31.97,31.97 33.10,32.01 81.24,31.76 L 130.45 31.50 L 131.44 28.70 ZM 703.32 121.62 C689.39,117.06 680.66,105.33 680.56,91.00 C680.42,73.12 692.71,60.24 710.86,59.23 C724.61,58.46 735.08,64.56 741.67,77.16 C745.42,84.34 745.64,95.84 742.17,103.59 C739.30,110.00 731.99,117.25 725.52,120.10 C719.38,122.81 709.10,123.51 703.32,121.62 ZM 719.59 105.25 C725.91,93.69 731.73,84.60 734.42,82.08 C735.84,80.74 737.00,79.15 737.00,78.54 C737.00,76.32 731.38,70.64 729.80,71.25 C728.95,71.57 724.49,77.50 719.90,84.41 L 711.55 96.99 L 704.52 89.49 C697.25,81.73 694.61,80.53 691.57,83.57 C688.22,86.92 688.61,87.56 706.47,108.25 C708.92,111.08 710.47,112.00 712.81,112.00 C715.60,112.00 716.27,111.33 719.59,105.25 ZM 304.29 112.89 C297.58,110.95 295.89,103.39 300.92,97.77 C303.78,94.55 303.99,94.49 313.70,94.16 L 323.56 93.83 L 323.02 100.27 C322.40,107.65 321.48,109.11 315.60,111.95 C311.02,114.17 309.22,114.32 304.29,112.89 ZM 533.01 111.25 C530.86,110.18 528.54,107.76 527.01,105.00 C524.74,100.93 524.50,99.41 524.50,89.00 C524.50,79.20 524.80,76.98 526.55,74.00 C533.25,62.61 548.85,63.40 554.13,75.40 C557.47,83.01 557.40,96.59 553.98,103.50 C549.80,111.92 540.92,115.21 533.01,111.25 ZM 617.00 111.25 C607.16,106.33 604.73,81.07 613.18,71.45 C618.09,65.86 625.71,64.73 633.02,68.51 C637.28,70.71 638.00,73.84 638.00,90.08 C638.00,107.14 637.45,108.80 630.92,111.42 C625.78,113.47 621.35,113.42 617.00,111.25 Z" fill="rgb(252,252,252)"/>
</g>
</svg>