<svg xmlns="http://www.w3.org/2000/svg" width="110" height="167" viewBox="0 0 110 167">
<g>
<path d="M 67.22 131.42 C43.66,139.73 15.58,122.11 11.97,96.75 C10.92,89.40 12.38,79.02 15.37,72.53 C18.62,65.49 25.84,57.89 32.69,54.29 C54.70,42.74 81.56,51.14 92.29,72.93 C95.34,79.13 95.50,80.03 95.50,90.98 C95.50,101.97 95.35,102.78 92.34,108.54 C86.59,119.54 77.54,127.78 67.22,131.42 ZM 43.50 121.34 C46.44,122.57 49.63,122.92 55.50,122.67 C62.55,122.36 64.21,121.89 69.51,118.75 C80.38,112.30 86.01,102.56 85.99,90.24 C85.98,82.10 83.16,75.30 77.05,68.67 C71.24,62.36 64.56,59.71 54.50,59.71 C39.69,59.71 31.28,64.75 24.96,77.40 C22.45,82.42 22.00,84.48 22.02,90.91 C22.06,105.06 29.36,115.40 43.50,121.34 ZM 58.91 108.80 C57.22,111.11 55.13,113.00 54.28,113.00 C51.56,113.00 31.00,90.16 31.00,87.14 C31.00,84.50 33.04,83.00 36.64,83.00 C39.36,83.00 40.77,84.02 45.61,89.50 C48.77,93.07 51.93,96.00 52.64,96.00 C53.34,96.00 55.16,93.86 56.68,91.25 C59.65,86.16 65.05,78.25 68.81,73.50 C71.49,70.11 73.31,70.67 76.34,75.85 L 78.18 78.99 L 75.17 82.79 C71.61,87.28 62.00,102.60 62.00,103.79 C62.00,104.24 60.61,106.49 58.91,108.80 Z" fill="rgb(37,141,208)"/>
<path d="M 58.49 88.27 C57.82,89.33 57.21,90.34 56.68,91.25 C55.16,93.86 53.34,96.00 52.64,96.00 C51.93,96.00 48.77,93.07 45.61,89.50 C44.22,87.92 43.11,86.71 42.17,85.79 C42.74,86.29 43.35,86.86 44.02,87.52 C47.07,90.53 49.70,92.18 51.83,92.45 C51.89,92.46 51.94,92.47 51.99,92.47 C52.97,92.60 53.68,92.69 54.32,92.54 C55.47,92.26 56.43,91.23 58.49,88.27 ZM 72.54 71.50 C71.65,71.17 70.79,71.47 69.84,72.35 C71.02,71.21 71.76,71.10 72.54,71.50 ZM 69.09 73.15 C69.00,73.26 68.90,73.38 68.81,73.50 C68.01,74.51 67.14,75.66 66.23,76.90 C67.41,75.24 68.33,74.02 69.09,73.15 ZM 36.51 83.00 C34.39,83.02 32.83,83.57 31.92,84.58 C32.83,83.56 34.37,83.00 36.42,83.00 C36.45,83.00 36.48,83.00 36.51,83.00 Z" fill="rgb(213,242,251)"/>
<path d="M 0.00 83.50 L 0.00 0.00 L 55.00 0.00 L 110.00 0.00 L 110.00 83.50 L 110.00 167.00 L 55.00 167.00 L 0.00 167.00 L 0.00 83.50 ZM 67.22 131.42 C77.54,127.78 86.59,119.54 92.34,108.54 C95.35,102.78 95.50,101.97 95.50,90.98 C95.50,80.03 95.34,79.13 92.29,72.93 C81.56,51.14 54.70,42.74 32.69,54.29 C25.84,57.89 18.62,65.49 15.37,72.53 C12.38,79.02 10.92,89.40 11.97,96.75 C15.58,122.11 43.66,139.73 67.22,131.42 ZM 43.50 121.34 C29.36,115.40 22.06,105.06 22.02,90.91 C22.00,84.48 22.45,82.42 24.96,77.40 C31.28,64.75 39.69,59.71 54.50,59.71 C64.56,59.71 71.24,62.36 77.05,68.67 C83.16,75.30 85.98,82.10 85.99,90.24 C86.01,102.56 80.38,112.30 69.51,118.75 C64.21,121.89 62.55,122.36 55.50,122.67 C49.63,122.92 46.44,122.57 43.50,121.34 ZM 58.91 108.80 C60.61,106.49 62.00,104.24 62.00,103.79 C62.00,102.60 71.61,87.28 75.17,82.79 L 78.18 78.99 L 76.34 75.85 C75.33,74.12 73.74,72.23 72.81,71.65 C70.86,70.42 69.53,71.85 61.76,83.43 C55.32,93.05 55.47,92.91 51.83,92.45 C49.70,92.18 47.07,90.53 44.02,87.52 C40.62,84.17 38.65,83.00 36.42,83.00 C33.03,83.00 31.00,84.55 31.00,87.14 C31.00,90.16 51.56,113.00 54.28,113.00 C55.13,113.00 57.22,111.11 58.91,108.80 Z" fill="rgb(251,252,252)"/>
</g>
</svg>